<svg width="39" height="38" viewBox="0 0 39 38" fill="none" xmlns="http://www.w3.org/2000/svg">
<path fill-rule="evenodd" clip-rule="evenodd" d="M19.5 36.8125C28.9234 36.8125 36.5625 29.3692 36.5625 20.1875C36.5625 11.0058 28.9234 3.5625 19.5 3.5625C10.0766 3.5625 2.4375 11.0058 2.4375 20.1875C2.4375 23.1692 3.24309 25.9675 4.65377 28.3871L2.4375 36.8125L11.3525 34.7983C13.7736 36.0827 16.5493 36.8125 19.5 36.8125ZM19.5 34.2548C27.4736 34.2548 33.9375 27.9567 33.9375 20.1875C33.9375 12.4183 27.4736 6.12019 19.5 6.12019C11.5264 6.12019 5.0625 12.4183 5.0625 20.1875C5.0625 23.1872 6.02611 25.9676 7.66818 28.2509L6.375 32.976L11.3099 31.7739C13.637 33.3385 16.4587 34.2548 19.5 34.2548Z" fill="#BFC8D0"/>
<path d="M34.125 19C34.125 26.8701 27.5772 33.25 19.5 33.25C16.4192 33.25 13.5609 32.3218 11.2035 30.7368L6.20455 31.9545L7.51452 27.1681C5.85113 24.8552 4.875 22.0387 4.875 19C4.875 11.1299 11.4228 4.75 19.5 4.75C27.5772 4.75 34.125 11.1299 34.125 19Z" fill="url(#paint0_linear_24_29)"/>
<path fill-rule="evenodd" clip-rule="evenodd" d="M19.5 35.625C28.9234 35.625 36.5625 28.1817 36.5625 19C36.5625 9.81827 28.9234 2.375 19.5 2.375C10.0766 2.375 2.4375 9.81827 2.4375 19C2.4375 21.9817 3.24309 24.78 4.65377 27.1996L2.4375 35.625L11.3525 33.6108C13.7736 34.8952 16.5493 35.625 19.5 35.625ZM19.5 33.0673C27.4736 33.0673 33.9375 26.7692 33.9375 19C33.9375 11.2308 27.4736 4.93269 19.5 4.93269C11.5264 4.93269 5.0625 11.2308 5.0625 19C5.0625 21.9997 6.02611 24.7801 7.66818 27.0634L6.375 31.7885L11.3099 30.5864C13.637 32.151 16.4587 33.0673 19.5 33.0673Z" fill="white"/>
<path d="M15.2344 11.2811C14.8287 10.4872 14.2064 10.5575 13.5777 10.5575C12.4541 10.5575 10.7021 11.8688 10.7021 14.3094C10.7021 16.3095 11.6067 18.4989 14.6548 21.7742C17.5964 24.935 21.4614 26.5701 24.6702 26.5145C27.8789 26.4588 28.5391 23.7684 28.5391 22.8598C28.5391 22.4571 28.2826 22.2561 28.1059 22.2016C27.0125 21.6902 24.9958 20.7375 24.5369 20.5585C24.078 20.3795 23.8384 20.6216 23.6895 20.7533C23.2733 21.1397 22.4485 22.2785 22.166 22.5346C21.8836 22.7907 21.4625 22.6611 21.2873 22.5643C20.6425 22.3121 18.8942 21.5544 17.5006 20.2381C15.7771 18.6103 15.676 18.0502 15.3513 17.5516C15.0915 17.1528 15.2821 16.9081 15.3772 16.8012C15.7486 16.3837 16.2613 15.7391 16.4912 15.4188C16.7212 15.0985 16.5386 14.6122 16.4291 14.3094C15.958 13.0067 15.5589 11.9163 15.2344 11.2811Z" fill="white"/>
<defs>
<linearGradient id="paint0_linear_24_29" x1="32.2969" y1="8.3125" x2="5.53927" y2="33.9435" gradientUnits="userSpaceOnUse">
<stop stop-color="#5BD066"/>
<stop offset="1" stop-color="#27B43E"/>
</linearGradient>
</defs>
</svg>
