<svg width="43" height="38" viewBox="0 0 43 38" fill="none" xmlns="http://www.w3.org/2000/svg">
<path d="M3.01606 11.8051C3.18877 9.45527 5.32655 7.61373 7.98787 7.49722C11.8416 7.32849 17.3498 7.125 21.5 7.125C25.6502 7.125 31.1584 7.32849 35.0121 7.49722C37.6734 7.61373 39.8112 9.45527 39.9839 11.8051C40.1494 14.0564 40.3125 16.8265 40.3125 19C40.3125 21.1735 40.1494 23.9437 39.9839 26.1949C39.8112 28.5447 37.6734 30.3863 35.0121 30.5028C31.1584 30.6715 25.6502 30.875 21.5 30.875C17.3498 30.875 11.8416 30.6715 7.98788 30.5028C5.32656 30.3863 3.18877 28.5447 3.01605 26.1949C2.85058 23.9436 2.6875 21.1735 2.6875 19C2.6875 16.8265 2.85058 14.0563 3.01606 11.8051Z" fill="#FC0D1B"/>
<path d="M17.4688 14.25V23.75L28.2188 19L17.4688 14.25Z" fill="white"/>
</svg>
